<?xml version="1.0" encoding="utf-8"?><svg viewBox="0 0 576 512" xmlns="http://www.w3.org/2000/svg" xmlns:xlink="http://www.w3.org/1999/xlink"><style>:root>svg{display:none}:root>svg:target{display:block}</style><svg id="Ok" viewBox="0 0 215 215" xmlns="http://www.w3.org/2000/svg"><defs><style>.aacls-1{fill:#ee8208}.aacls-2{fill:#fff}</style></defs><g id="aaOk"><path id="aaBackground" class="aacls-1" d="M831 657.2c0-48.65 0-73 15.11-88.09S885.55 554 934.2 554h8.6c48.65 0 73 0 88.09 15.11S1046 608.55 1046 657.2v8.6c0 48.65 0 73-15.11 88.09S991.45 769 942.8 769h-8.6c-48.65 0-73 0-88.09-15.11S831 714.45 831 665.8z" transform="translate(-831 -554)"/><g id="aaOk-2" data-name="Ok"><path id="aaOk-3" data-name="Ok" class="aacls-2" d="M938.45 665.08a32.79 32.79 0 10-32.79-32.79 32.84 32.84 0 0032.79 32.79m0-46.4a13.61 13.61 0 11-13.6 13.61 13.61 13.61 0 0113.6-13.61" transform="translate(-831 -554)"/><path id="aaOk-4" data-name="Ok" class="aacls-2" d="M951.75 691.78a61.26 61.26 0 0019.09-7.92 9.65 9.65 0 10-10.26-16.34 41.76 41.76 0 01-44.16 0 9.65 9.65 0 00-10.26 16.34 60.29 60.29 0 0019.09 7.92l-18.37 18.38a9.61 9.61 0 000 13.6 9.93 9.93 0 006.8 2.84 9.37 9.37 0 006.8-2.84l18.07-18.07 18.07 18.07a9.62 9.62 0 0013.61-13.6z" transform="translate(-831 -554)"/></g></g></svg><svg id="Skype" viewBox="0 0 215 215" xmlns="http://www.w3.org/2000/svg"><defs><style>.abcls-1{fill:#0078d7}.abcls-2{fill:#fff}</style></defs><g id="abSkype"><path id="abBackground" class="abcls-1" d="M831 380.2c0-48.65 0-73 15.11-88.09S885.55 277 934.2 277h8.6c48.65 0 73 0 88.09 15.11S1046 331.55 1046 380.2v8.6c0 48.65 0 73-15.11 88.09S991.45 492 942.8 492h-8.6c-48.65 0-73 0-88.09-15.11S831 437.45 831 388.8z" transform="translate(-831 -277)"/><path id="abSkype-2" data-name="Skype" class="abcls-2" d="M956.65 375.23l-21.33-4.81c-8.11-1.87-17.26-4.51-17.26-12.27s6.23-13.33 18.07-13.33c23.83 0 21.86 16.65 33.7 16.65 6.22 0 11.58-3.48 11.58-9.87 0-14.92-23.7-25.92-43.63-25.92-21.66 0-44.38 9-44.38 33.85 0 12 4.07 24.88 27.27 30.77l28.82 7.31c8.72 2.18 11.29 7.18 11.29 11.68 0 7.47-7.75 15.44-21 15.44-25.86 0-22.25-20.8-36.12-20.8-6.22 0-11.09 4.28-11.09 10.49 0 12.12 14.8 28.62 47.21 28.62 30.83 0 46.47-15.59 46.47-35.79.01-13.04-6.25-26.74-29.6-32.02z" transform="translate(-831 -277)"/></g></svg><svg id="Telegram" viewBox="0 0 215 215" xmlns="http://www.w3.org/2000/svg"><defs><linearGradient id="acБезымянный_градиент_2" x1="554" y1="107.5" x2="769" y2="107.5" gradientUnits="userSpaceOnUse"><stop offset="0" stop-color="#2aabee"/><stop offset="1" stop-color="#229ed9"/></linearGradient><style>.accls-1{fill:url(#acБезымянный_градиент_2)}.accls-2{fill:#fff;fill-rule:evenodd}</style></defs><g id="acTelegram"><path id="acBackground" class="accls-1" d="M554 103.2c0-48.65 0-73 15.11-88.09S608.55 0 657.2 0h8.6c48.65 0 73 0 88.09 15.11S769 54.55 769 103.2v8.6c0 48.65 0 73-15.11 88.09S714.45 215 665.8 215h-8.6c-48.65 0-73 0-88.09-15.11S554 160.45 554 111.8z" transform="translate(-554)"/><path id="acTelegram-2" data-name="Telegram" class="accls-2" d="M598.29 105q51.57-22.47 68.78-29.63c32.76-13.63 39.56-16 44-16.07a7.7 7.7 0 014.57 1.37 5 5 0 011.68 3.19 21 21 0 01.2 4.65c-1.78 18.65-9.46 63.91-13.37 84.79-1.65 8.84-4.9 11.81-8.06 12.1-6.85.63-12.05-4.53-18.68-8.88-10.38-6.8-16.25-11-26.32-17.68-11.65-7.67-4.1-11.89 2.54-18.78 1.74-1.81 31.91-29.26 32.5-31.75a2.41 2.41 0 00-.55-2.08 2.68 2.68 0 00-2.44-.24q-1.56.36-49.75 32.88-7.07 4.86-12.79 4.73c-4.22-.09-12.32-2.38-18.34-4.34-7.38-2.4-13.25-3.67-12.74-7.75q.39-3.2 8.77-6.51z" transform="translate(-554)"/></g></svg><svg id="VK-color" viewBox="0 0 215 215" xmlns="http://www.w3.org/2000/svg"><defs><style>.adcls-1{fill:#07f}.adcls-2{fill:#fff}</style></defs><g id="adVK"><path id="adBackground" class="adcls-1" d="M0 103.2c0-48.65 0-73 15.11-88.09S54.55 0 103.2 0h8.6c48.65 0 73 0 88.09 15.11S215 54.55 215 103.2v8.6c0 48.65 0 73-15.11 88.09S160.45 215 111.8 215h-8.6c-48.65 0-73 0-88.09-15.11S0 160.45 0 111.8z"/><path id="adVK-2" data-name="VK" class="adcls-2" d="M112 151c-45.86 0-72-31.44-73.1-83.75h23c.75 38.4 17.69 54.66 31.1 58v-58h21.63v33.12c13.24-1.43 27.16-16.52 31.85-33.12h21.63c-3.6 20.46-18.69 35.55-29.42 41.75 10.73 5 27.91 18.19 34.45 42h-23.85c-5.11-16-17.85-28.3-34.7-30v30z"/></g></svg><svg id="Viber" viewBox="0 0 215 215" xmlns="http://www.w3.org/2000/svg"><defs><style>.aecls-1{fill:#7360f2}.aecls-2{fill:#fff}</style></defs><g id="aeViber"><path id="aeBackground" class="aecls-1" d="M0 380.2c0-48.65 0-73 15.11-88.09S54.55 277 103.2 277h8.6c48.65 0 73 0 88.09 15.11S215 331.55 215 380.2v8.6c0 48.65 0 73-15.11 88.09S160.45 492 111.8 492h-8.6c-48.65 0-73 0-88.09-15.11S0 437.45 0 388.8z" transform="translate(0 -277)"/><g id="aeViber-2" data-name="Viber"><path class="aecls-2" d="M152.45 339.36c-3-2.8-15.3-11.7-42.61-11.82 0 0-32.21-1.94-47.91 12.46-8.74 8.74-11.81 21.53-12.14 37.39S49.05 423 77.7 431v12.3s-.19 5 3.09 6c4 1.23 6.29-2.55 10.08-6.63 2.08-2.24 5-5.53 7.11-8 19.59 1.65 34.66-2.12 36.37-2.68 4-1.28 26.34-4.15 30-33.86 3.75-30.66-1.83-50.04-11.9-58.77zm3.32 56.54c-3.07 24.81-21.23 26.37-24.58 27.44a101.66 101.66 0 01-31.3 2.66s-12.4 15-16.27 18.85a2.07 2.07 0 01-1.79.73c-.67-.16-.85-.95-.85-2.1 0-1.65.11-20.44.11-20.44-24.23-6.73-22.82-32-22.54-45.27s2.76-24.09 10.15-31.39c13.28-12 40.64-10.23 40.64-10.23 23.1.1 34.17 7.06 36.74 9.39 8.52 7.29 12.86 24.76 9.69 50.34z" transform="translate(0 -277)"/><path id="aeViber-3" data-name="Viber" class="aecls-2" d="M121.08 378.24a1.54 1.54 0 01-1.54-1.47c-.26-5.25-2.73-7.81-7.77-8.08a1.54 1.54 0 01.16-3.08c6.66.35 10.36 4.15 10.7 11a1.55 1.55 0 01-1.47 1.62z" transform="translate(0 -277)"/><path id="aeViber-4" data-name="Viber" class="aecls-2" d="M129 380.9a1.56 1.56 0 01-1.52-1.58 17.81 17.81 0 00-4.61-13.07c-3.21-3.51-7.61-5.42-13.45-5.85a1.54 1.54 0 01.22-3.08c6.58.48 11.79 2.78 15.51 6.84a21.1 21.1 0 015.42 15.23 1.54 1.54 0 01-1.57 1.51z" transform="translate(0 -277)"/><path id="aeViber-5" data-name="Viber" class="aecls-2" d="M137.12 384.07a1.53 1.53 0 01-1.54-1.53c-.07-9.32-2.87-16.74-8.31-22.05a28.67 28.67 0 00-20.49-8.1 1.55 1.55 0 110-3.09c9 .07 16.58 3.09 22.62 9s9.17 14.06 9.25 24.23a1.55 1.55 0 01-1.54 1.56z" transform="translate(0 -277)"/><path id="aeViber-6" data-name="Viber" class="aecls-2" d="M112.16 397.38a4.22 4.22 0 003.34-1.25l2.28-2.87a5 5 0 016.35-.88c2 1.11 3.84 2.32 5.66 3.61s5.26 4.22 5.27 4.22a4.35 4.35 0 01.92 5.7 23.64 23.64 0 01-4.74 5.84 9.36 9.36 0 01-4.82 2.33 3.3 3.3 0 01-.7 0 6.46 6.46 0 01-2-.32l-.05-.07c-2.43-.69-6.49-2.4-13.24-6.13a79 79 0 01-11.13-7.35 56.84 56.84 0 01-5-4.44l-.17-.17-.17-.17-.17-.16c-.06-.06-.11-.12-.17-.17a58.52 58.52 0 01-4.43-5 78.36 78.36 0 01-7.35-11.12c-3.73-6.76-5.45-10.81-6.13-13.24l-.08-.06a6.43 6.43 0 01-.31-2 3.35 3.35 0 010-.71 9.58 9.58 0 012.34-4.82 23.64 23.64 0 015.84-4.74 4.36 4.36 0 015.7.91s3 3.54 4.21 5.27a67.17 67.17 0 013.62 5.67 5 5 0 01-.88 6.35l-2.87 2.28a4.21 4.21 0 00-1.28 3.37s4.29 16.07 20.16 20.12z" transform="translate(0 -277)"/></g></g></svg><svg id="WhatsApp" viewBox="0 0 215 215" xmlns="http://www.w3.org/2000/svg"><defs><style>.afcls-1{fill:#25d366}.afcls-2,.afcls-3{fill:#fff}.afcls-3{fill-rule:evenodd}</style></defs><g id="afWhatsApp"><path id="afBackground" class="afcls-1" d="M831 103.2c0-48.65 0-73 15.11-88.09S885.55 0 934.2 0h8.6c48.65 0 73 0 88.09 15.11S1046 54.55 1046 103.2v8.6c0 48.65 0 73-15.11 88.09S991.45 215 942.8 215h-8.6c-48.65 0-73 0-88.09-15.11S831 160.45 831 111.8z" transform="translate(-831)"/><g id="afWhatsApp-2" data-name="WhatsApp"><path id="afWhatsApp-3" data-name="WhatsApp" class="afcls-2" d="M880.57 166.37l8.3-30.32a58.51 58.51 0 1150.7 29.3 58.38 58.38 0 01-27.95-7.12zM913 147.64l1.78 1.05a48.5 48.5 0 0024.75 6.78 48.62 48.62 0 10-41.2-22.79l1.16 1.84-4.91 17.95z" transform="translate(-831)"/><path id="afWhatsApp-4" data-name="WhatsApp" class="afcls-3" d="M969 120.76c-.36-.61-1.34-1-2.8-1.71s-8.65-4.27-10-4.75-2.31-.74-3.29.73-3.77 4.75-4.63 5.73-1.7 1.1-3.16.37a40.29 40.29 0 01-11.76-7.26 44.05 44.05 0 01-8.13-10.13c-.85-1.46-.09-2.25.64-3s1.46-1.71 2.19-2.56a10 10 0 001.46-2.44 2.67 2.67 0 00-.12-2.56c-.36-.73-3.29-7.93-4.5-10.86s-2.4-2.46-3.29-2.51-1.83 0-2.81 0a5.38 5.38 0 00-3.8 1.8 16.41 16.41 0 00-5.12 12.2c0 7.19 5.24 14.14 6 15.12s10.31 15.74 25 22.07a81.77 81.77 0 008.34 3.08 19.86 19.86 0 009.2.58c2.81-.42 8.65-3.53 9.87-7s1.12-6.29.71-6.9z" transform="translate(-831)"/></g></g></svg><svg viewBox="0 0 320 512" id="angle-left" xmlns="http://www.w3.org/2000/svg"><path d="M41.4 233.4c-12.5 12.5-12.5 32.8 0 45.3l160 160c12.5 12.5 32.8 12.5 45.3 0s12.5-32.8 0-45.3L109.3 256l137.3-137.4c12.5-12.5 12.5-32.8 0-45.3s-32.8-12.5-45.3 0l-160 160z"/></svg><svg viewBox="0 0 320 512" id="angle-right" xmlns="http://www.w3.org/2000/svg"><path d="M278.6 233.4c12.5 12.5 12.5 32.8 0 45.3l-160 160c-12.5 12.5-32.8 12.5-45.3 0s-12.5-32.8 0-45.3L210.7 256 73.4 118.6c-12.5-12.5-12.5-32.8 0-45.3s32.8-12.5 45.3 0l160 160z"/></svg><svg viewBox="0 0 448 512" id="angle-up" xmlns="http://www.w3.org/2000/svg"><path d="M201.4 137.4c12.5-12.5 32.8-12.5 45.3 0l160 160c12.5 12.5 12.5 32.8 0 45.3s-32.8 12.5-45.3 0L224 205.3 86.6 342.6c-12.5 12.5-32.8 12.5-45.3 0s-12.5-32.8 0-45.3l160-160z"/></svg><svg fill="#4c4b4b" viewBox="0 0 512 512" id="angles-right" xmlns="http://www.w3.org/2000/svg"><path d="M470.6 278.6c12.5-12.5 12.5-32.8 0-45.3l-160-160c-12.5-12.5-32.8-12.5-45.3 0s-12.5 32.8 0 45.3L402.7 256 265.4 393.4c-12.5 12.5-12.5 32.8 0 45.3s32.8 12.5 45.3 0l160-160zm-352 160l160-160c12.5-12.5 12.5-32.8 0-45.3l-160-160c-12.5-12.5-32.8-12.5-45.3 0s-12.5 32.8 0 45.3L210.7 256 73.4 393.4c-12.5 12.5-12.5 32.8 0 45.3s32.8 12.5 45.3 0z"/></svg><svg viewBox="0 0 25 25" id="arrow" xmlns="http://www.w3.org/2000/svg"><path d="M24.625 13.36l-5.473 5.078c-.343.316-.84.402-1.27.214-.425-.187-.702-.609-.702-1.03l.004-3.56H1.562C.7 14.063 0 13.364 0 12.457c0-.91.7-1.52 1.563-1.52h15.62V7.422c0-.465.278-.887.704-1.074a1.17 1.17 0 011.265.215l5.473 5.078c.5.464.5 1.254 0 1.718zm0 0" fill="#fff"/></svg><svg fill="currentColor" viewBox="0 0 24 24" id="caret-down" xmlns="http://www.w3.org/2000/svg"><path d="M4.594 8.912l6.553 7.646a1.126 1.126 0 001.708 0l6.552-7.646c.625-.73.107-1.857-.854-1.857H5.447c-.961 0-1.48 1.127-.853 1.857z"/></svg><svg fill="none" stroke="#d11317" stroke-linecap="round" stroke-linejoin="round" stroke-width="2" viewBox="0 0 24 24" id="clock" xmlns="http://www.w3.org/2000/svg"><path d="M12 21a9 9 0 100-18 9 9 0 000 18z"/><path d="M12 7v5l3 3"/></svg><svg viewBox="0 0 320 512" id="close" xmlns="http://www.w3.org/2000/svg"><path d="M310.6 150.6c12.5-12.5 12.5-32.8 0-45.3s-32.8-12.5-45.3 0L160 210.7 54.6 105.4c-12.5-12.5-32.8-12.5-45.3 0s-12.5 32.8 0 45.3L114.7 256 9.4 361.4c-12.5 12.5-12.5 32.8 0 45.3s32.8 12.5 45.3 0L160 301.3l105.4 105.3c12.5 12.5 32.8 12.5 45.3 0s12.5-32.8 0-45.3L205.3 256l105.3-105.4z"/></svg><svg fill="none" stroke="#d11317" stroke-linecap="round" stroke-linejoin="round" stroke-width="2" viewBox="0 0 24 24" id="dollar" xmlns="http://www.w3.org/2000/svg"><path d="M12 1v22M17 5H9.5a3.5 3.5 0 000 7h5a3.5 3.5 0 010 7H6"/></svg><svg viewBox="0 0 512 512" id="envelope" xmlns="http://www.w3.org/2000/svg"><path fill="#D11317" d="M64 112c-8.8 0-16 7.2-16 16v22.1l172.5 141.6c20.7 17 50.4 17 71.1 0L464 150.1V128c0-8.8-7.2-16-16-16H64zM48 212.2V384c0 8.8 7.2 16 16 16h384c8.8 0 16-7.2 16-16V212.2L322 328.8c-38.4 31.5-93.7 31.5-132 0L48 212.2zM0 128c0-35.3 28.7-64 64-64h384c35.3 0 64 28.7 64 64v256c0 35.3-28.7 64-64 64H64c-35.3 0-64-28.7-64-64V128z"/></svg><svg viewBox="0 0 448 512" id="facebook" xmlns="http://www.w3.org/2000/svg"><path d="M400 32H48A48 48 0 000 80v352a48 48 0 0048 48h137.25V327.69h-63V256h63v-54.64c0-62.15 37-96.48 93.67-96.48 27.14 0 55.52 4.84 55.52 4.84v61h-31.27c-30.81 0-40.42 19.12-40.42 38.73V256h68.78l-11 71.69h-57.78V480H400a48 48 0 0048-48V80a48 48 0 00-48-48z"/></svg><svg viewBox="0 0 488 512" id="google" xmlns="http://www.w3.org/2000/svg"><!--! Font Awesome Pro 6.2.1 by @fontawesome - https://fontawesome.com License - https://fontawesome.com/license (Commercial License) Copyright 2022 Fonticons, Inc.--><path d="M488 261.8C488 403.3 391.1 504 248 504 110.8 504 0 393.2 0 256S110.8 8 248 8c66.8 0 123 24.5 166.3 64.9l-67.5 64.9C258.5 52.6 94.3 116.6 94.3 256c0 86.5 69.1 156.6 153.7 156.6 98.2 0 135-70.4 140.8-106.9H248v-85.3h236.1c2.3 12.7 3.9 24.9 3.9 41.4z"/></svg><svg fill="#fff" viewBox="0 0 24 24" id="home" xmlns="http://www.w3.org/2000/svg"><path d="M12.261 4.745a.375.375 0 00-.518 0l-8.63 8.244a.374.374 0 00-.115.271l-.002 7.737a1.5 1.5 0 001.5 1.5h4.505a.75.75 0 00.75-.75v-6.375a.375.375 0 01.375-.375h3.75a.375.375 0 01.375.375v6.375a.75.75 0 00.75.75h4.503a1.5 1.5 0 001.5-1.5V13.26a.374.374 0 00-.116-.271L12.26 4.745z"/><path d="M23.011 11.444L19.505 8.09V3a.75.75 0 00-.75-.75h-2.25a.75.75 0 00-.75.75v1.5L13.04 1.904c-.254-.257-.632-.404-1.04-.404-.407 0-.784.147-1.038.405l-9.97 9.539a.765.765 0 00-.063 1.048.749.749 0 001.087.05l9.726-9.294a.375.375 0 01.519 0l9.727 9.294a.75.75 0 001.059-.02c.288-.299.264-.791-.036-1.078z"/></svg><svg viewBox="0 0 512 512" id="image" xmlns="http://www.w3.org/2000/svg"><path d="M152 120c-26.51 0-48 21.49-48 48s21.49 48 48 48 48-21.49 48-48-21.5-48-48-48zm295.1-88h-384C28.65 32-.01 60.65-.01 96v320c0 35.35 28.65 64 63.1 64h384c35.35 0 64-28.65 64-64V96c.01-35.35-27.79-64-63.99-64zm16 377.3L326.3 223.4c-2.5-4.6-8.2-7.4-14.3-7.4-6.113 0-11.82 2.768-15.21 7.379l-106.6 144.1-37.09-46.1c-3.441-4.279-8.934-6.809-14.77-6.809-5.842 0-11.33 2.529-14.78 6.809l-75.52 93.81c0-.03 0 .03 0 0L47.99 96c0-8.822 7.178-16 16-16h384c8.822 0 16 7.178 16 16v313.3z"/></svg><svg viewBox="0 0 448 512" id="instagram" xmlns="http://www.w3.org/2000/svg"><!--! Font Awesome Pro 6.2.1 by @fontawesome - https://fontawesome.com License - https://fontawesome.com/license (Commercial License) Copyright 2022 Fonticons, Inc.--><path d="M224 202.66A53.34 53.34 0 10277.36 256 53.38 53.38 0 00224 202.66zm124.71-41a54 54 0 00-30.41-30.41c-21-8.29-71-6.43-94.3-6.43s-73.25-1.93-94.31 6.43a54 54 0 00-30.41 30.41c-8.28 21-6.43 71.05-6.43 94.33s-1.85 73.27 6.47 94.34a54 54 0 0030.41 30.41c21 8.29 71 6.43 94.31 6.43s73.24 1.93 94.3-6.43a54 54 0 0030.41-30.41c8.35-21 6.43-71.05 6.43-94.33s1.92-73.26-6.43-94.33zM224 338a82 82 0 1182-82 81.9 81.9 0 01-82 82zm85.38-148.3a19.14 19.14 0 1119.13-19.14 19.1 19.1 0 01-19.09 19.18zM400 32H48A48 48 0 000 80v352a48 48 0 0048 48h352a48 48 0 0048-48V80a48 48 0 00-48-48zm-17.12 290c-1.29 25.63-7.14 48.34-25.85 67s-41.4 24.63-67 25.85c-26.41 1.49-105.59 1.49-132 0-25.63-1.29-48.26-7.15-67-25.85s-24.63-41.42-25.85-67c-1.49-26.42-1.49-105.61 0-132 1.29-25.63 7.07-48.34 25.85-67s41.47-24.56 67-25.78c26.41-1.49 105.59-1.49 132 0 25.63 1.29 48.33 7.15 67 25.85s24.63 41.42 25.85 67.05c1.49 26.32 1.49 105.44 0 131.88z"/></svg><svg id="linkedIn" viewBox="0 0 215 215" xmlns="http://www.w3.org/2000/svg"><defs><style>.avcls-1{fill:#1d66c2}.avcls-2{fill:#fff}</style></defs><g id="avLinkedIn"><path id="avBackground" class="avcls-1" d="M1385 657.2c0-48.65 0-73 15.11-88.09S1439.55 554 1488.2 554h8.6c48.65 0 73 0 88.09 15.11S1600 608.55 1600 657.2v8.6c0 48.65 0 73-15.11 88.09S1545.45 769 1496.8 769h-8.6c-48.65 0-73 0-88.09-15.11S1385 714.45 1385 665.8z" transform="translate(-1385 -554)"/><g id="avLinkedIn-2" data-name="LinkedIn"><path id="avLinkedIn-3" data-name="LinkedIn" class="avcls-2" d="M57.82 83.44h22.81v73.58H57.82z"/><path id="avLinkedIn-4" data-name="LinkedIn" class="avcls-2" d="M1523.76 636c-8.83-.74-16.92 4.41-21.34 11.77v-10.3h-22.07V711h22.81v-36.77c0-9.57 2.2-19.13 14-19.13s11.77 11 11.77 19.86V711h22.81l-.74-39.74c0-19.84-3.7-35.26-27.24-35.26z" transform="translate(-1385 -554)"/><circle id="avLinkedIn-5" data-name="LinkedIn" class="avcls-2" cx="68.86" cy="59.89" r="13.24"/></g></g></svg><svg fill="#d11317" viewBox="0 0 24 24" id="mail" xmlns="http://www.w3.org/2000/svg"><path d="M2.404 7.06L12 11.859l9.596-4.797A2.4 2.4 0 0019.2 4.8H4.8a2.4 2.4 0 00-2.396 2.26z"/><path d="M21.6 9.742l-9.6 4.8-9.6-4.8V16.8a2.4 2.4 0 002.4 2.4h14.4a2.4 2.4 0 002.4-2.4V9.742z"/></svg><svg viewBox="0 0 384 512" id="pdf" xmlns="http://www.w3.org/2000/svg"><path d="M320 464c8.8 0 16-7.2 16-16v-32h48v32c0 35.3-28.7 64-64 64H64c-35.35 0-64-28.7-64-64v-32h48v32c0 8.8 7.16 16 16 16h256zm-64-304c-17.7 0-32-14.3-32-32V48H64c-8.84 0-16 7.16-16 16v128H0V64C0 28.65 28.65 0 64 0h165.5c17 0 33.2 6.743 45.2 18.75l90.6 90.55c12 12 18.7 28.2 18.7 45.2V192h-48v-32h-80zM88 224c30.9 0 56 25.1 56 56s-25.1 56-56 56h-8v32c0 8.8-7.16 16-16 16s-16-7.2-16-16V240c0-8.8 7.16-16 16-16h24zm24 56c0-13.3-10.7-24-24-24h-8v48h8c13.3 0 24-10.7 24-24zm48-40c0-8.8 7.2-16 16-16h24c26.5 0 48 21.5 48 48v64c0 26.5-21.5 48-48 48h-24c-8.8 0-16-7.2-16-16V240zm32 112h8c8.8 0 16-7.2 16-16v-64c0-8.8-7.2-16-16-16h-8v96zm144-128c8.8 0 16 7.2 16 16s-7.2 16-16 16h-32v32h32c8.8 0 16 7.2 16 16s-7.2 16-16 16h-32v48c0 8.8-7.2 16-16 16s-16-7.2-16-16V240c0-8.8 7.2-16 16-16h48z"/></svg><svg viewBox="0 0 512 512" id="phone" xmlns="http://www.w3.org/2000/svg"><path fill="#D11317" d="M280 0c128.1 0 232 103.9 232 232 0 13.3-10.7 24-24 24s-24-10.7-24-24c0-101.6-82.4-184-184-184-13.3 0-24-10.7-24-24s10.7-24 24-24zm8 192a32 32 0 110 64 32 32 0 110-64zm-32-72c0-13.3 10.7-24 24-24 75.1 0 136 60.9 136 136 0 13.3-10.7 24-24 24s-24-10.7-24-24c0-48.6-39.4-88-88-88-13.3 0-24-10.7-24-24zM117.5 1.4c19.4-5.3 39.7 4.6 47.4 23.2l40 96c6.8 16.3 2.1 35.2-11.6 46.3L144 207.3c33.3 70.4 90.3 127.4 160.7 160.7l40.3-49.3c11.2-13.7 30-18.4 46.3-11.6l96 40c18.6 7.7 28.5 28 23.2 47.4l-24 88C481.8 499.9 466 512 448 512 200.6 512 0 311.4 0 64c0-18 12.1-33.8 29.5-38.6l88-24z"/></svg><svg fill="#d11317" viewBox="0 0 24 24" id="phone-bottom" xmlns="http://www.w3.org/2000/svg"><path d="M2.4 3.6a1.2 1.2 0 011.2-1.2h2.584a1.2 1.2 0 011.183 1.003l.888 5.322a1.2 1.2 0 01-.648 1.272l-1.858.928a13.244 13.244 0 007.326 7.326l.929-1.858a1.2 1.2 0 011.27-.648l5.323.888a1.2 1.2 0 011.003 1.183V20.4a1.2 1.2 0 01-1.2 1.2H18C9.384 21.6 2.4 14.616 2.4 6V3.6z"/></svg><svg viewBox="0 0 512 512" id="phone-solid" xmlns="http://www.w3.org/2000/svg"><!--! Font Awesome Pro 6.2.1 by @fontawesome - https://fontawesome.com License - https://fontawesome.com/license (Commercial License) Copyright 2022 Fonticons, Inc.--><path d="M164.9 24.6c-7.7-18.6-28-28.5-47.4-23.2l-88 24C12.1 30.2 0 46 0 64c0 247.4 200.6 448 448 448 18 0 33.8-12.1 38.6-29.5l24-88c5.3-19.4-4.6-39.7-23.2-47.4l-96-40c-16.3-6.8-35.2-2.1-46.3 11.6L304.7 368c-70.4-33.3-127.4-90.3-160.7-160.7l49.3-40.3c13.7-11.2 18.4-30 11.6-46.3l-40-96z"/></svg><svg fill="none" stroke-linecap="round" stroke-linejoin="round" stroke-width="2" viewBox="0 0 24 24" id="search" xmlns="http://www.w3.org/2000/svg"><path d="M11 3a8 8 0 100 16 8 8 0 100-16zM21 21l-4.35-4.35"/></svg><svg viewBox="0 0 512 512" id="shevron-up" xmlns="http://www.w3.org/2000/svg"><!--! Font Awesome Pro 6.2.1 by @fontawesome - https://fontawesome.com License - https://fontawesome.com/license (Commercial License) Copyright 2022 Fonticons, Inc.--><path d="M256 512c141.4 0 256-114.6 256-256S397.4 0 256 0 0 114.6 0 256s114.6 256 256 256zm121-241c9.4 9.4 9.4 24.6 0 33.9s-24.6 9.4-33.9 0l-87-87-87 87c-9.4 9.4-24.6 9.4-33.9 0s-9.4-24.6 0-33.9L239 167c9.4-9.4 24.6-9.4 33.9 0L377 271z"/></svg><svg fill="none" stroke="#d11317" stroke-linecap="round" stroke-linejoin="round" stroke-width="2" viewBox="0 0 24 24" id="shield" xmlns="http://www.w3.org/2000/svg"><path d="M15.75 8.25l-5.194 6-2.306-2.26"/><path d="M21.708 5.267C17.516 4.515 15.783 3.96 12 2.25 8.217 3.959 6.484 4.515 2.292 5.267 1.532 17.303 11.277 21.46 12 21.75c.723-.291 10.467-4.447 9.708-16.483z"/></svg><svg viewBox="0 0 512 512" id="twitter" xmlns="http://www.w3.org/2000/svg"><!--! Font Awesome Pro 6.2.1 by @fontawesome - https://fontawesome.com License - https://fontawesome.com/license (Commercial License) Copyright 2022 Fonticons, Inc.--><path d="M459.37 151.716c.325 4.548.325 9.097.325 13.645 0 138.72-105.583 298.558-298.558 298.558-59.452 0-114.68-17.219-161.137-47.106 8.447.974 16.568 1.299 25.34 1.299 49.055 0 94.213-16.568 130.274-44.832-46.132-.975-84.792-31.188-98.112-72.772 6.498.974 12.995 1.624 19.818 1.624 9.421 0 18.843-1.3 27.614-3.573-48.081-9.747-84.143-51.98-84.143-102.985v-1.299c13.969 7.797 30.214 12.67 47.431 13.319-28.264-18.843-46.781-51.005-46.781-87.391 0-19.492 5.197-37.36 14.294-52.954 51.655 63.675 129.3 105.258 216.365 109.807-1.624-7.797-2.599-15.918-2.599-24.04 0-57.828 46.782-104.934 104.934-104.934 30.213 0 57.502 12.67 76.67 33.137 23.715-4.548 46.456-13.32 66.599-25.34-7.798 24.366-24.366 44.833-46.132 57.827 21.117-2.273 41.584-8.122 60.426-16.243-14.292 20.791-32.161 39.308-52.628 54.253z"/></svg><svg fill="none" stroke="#d11317" stroke-linecap="round" stroke-linejoin="round" stroke-width="2" viewBox="0 0 24 24" id="users" xmlns="http://www.w3.org/2000/svg"><path d="M17 21v-2a4 4 0 00-4-4H5a4 4 0 00-4 4v2M9 3a4 4 0 100 8 4 4 0 100-8zM23 21v-2a4 4 0 00-3-3.87M16 3.13a4 4 0 010 7.75"/></svg><svg viewBox="0 0 448 512" id="vk" xmlns="http://www.w3.org/2000/svg"><!--! Font Awesome Pro 6.2.1 by @fontawesome - https://fontawesome.com License - https://fontawesome.com/license (Commercial License) Copyright 2022 Fonticons, Inc.--><path d="M31.49 63.49C0 94.982 0 145.672 0 247.04v17.92c0 101.369 0 152.059 31.49 183.549C62.982 480 113.672 480 215.04 480h17.92c101.369 0 152.059 0 183.549-31.491C448 417.019 448 366.329 448 264.96v-17.92c0-101.369 0-152.059-31.491-183.55C385.019 32 334.329 32 232.96 32h-17.92C113.671 32 62.981 32 31.49 63.49zM75.6 168.268h51.147c1.68 85.493 39.386 121.706 69.253 129.173V168.267h48.16V242c29.493-3.173 60.48-36.773 70.933-73.733h48.16a142.258 142.258 0 01-65.52 92.96 147.348 147.348 0 0176.72 93.52H321.44a92.154 92.154 0 00-77.28-66.64v66.64h-5.787c-102.106 0-160.346-70-162.773-186.48z"/></svg><svg viewBox="0 0 576 512" id="youtube" xmlns="http://www.w3.org/2000/svg"><!--! Font Awesome Pro 6.2.1 by @fontawesome - https://fontawesome.com License - https://fontawesome.com/license (Commercial License) Copyright 2022 Fonticons, Inc.--><path d="M549.655 124.083c-6.281-23.65-24.787-42.276-48.284-48.597C458.781 64 288 64 288 64S117.22 64 74.629 75.486c-23.497 6.322-42.003 24.947-48.284 48.597-11.412 42.867-11.412 132.305-11.412 132.305s0 89.438 11.412 132.305c6.281 23.65 24.787 41.5 48.284 47.821C117.22 448 288 448 288 448s170.78 0 213.371-11.486c23.497-6.321 42.003-24.171 48.284-47.821 11.412-42.867 11.412-132.305 11.412-132.305s0-89.438-11.412-132.305zm-317.51 213.508V175.185l142.739 81.205-142.739 81.201z"/></svg></svg>