<?xml version="1.0" encoding="iso-8859-1"?>
<!-- Generator: Adobe Illustrator 18.0.0, SVG Export Plug-In . SVG Version: 6.00 Build 0)  -->
<!DOCTYPE svg PUBLIC "-//W3C//DTD SVG 1.1//EN" "http://www.w3.org/Graphics/SVG/1.1/DTD/svg11.dtd">
<svg version="1.1" id="Capa_1" xmlns="http://www.w3.org/2000/svg" xmlns:xlink="http://www.w3.org/1999/xlink" x="0px" y="0px"
	 viewBox="0 0 375.795 375.795" style="enable-background:new 0 0 375.795 375.795;" xml:space="preserve">
<g>
	<path d="M364.053,324.635V61.498H257.919V35.136H117.877v26.361H11.743v263.138H0v16.023h11.743h149.379h53.552h149.379h11.742
		v-16.023H364.053z M145.099,324.635H27.767V77.521h117.332V324.635z M214.674,324.635h-53.552v-27.787h53.552V324.635z
		 M214.674,66.494h-18.415v25.492h18.415v15.622h-18.415V133.1h18.415v15.625h-18.415v25.491h18.415v15.623h-18.415v25.492h18.415
		v15.624h-18.415v25.489h18.415v25.382h-53.552v-25.382h18.414v-25.489h-18.414v-15.624h18.414v-25.492h-18.414v-15.623h18.414
		v-25.491h-18.414V133.1h18.414v-25.492h-18.414V91.986h18.414V66.494h-18.414v-4.996h-28.224v-11.34h109.999v11.34h-28.224V66.494z
		 M348.029,324.635H230.697V77.521h117.332V324.635z"/>
	<rect x="246.238" y="94.947" width="34.207" height="27.19"/>
	<rect x="298.282" y="94.947" width="34.207" height="27.19"/>
	<rect x="246.238" y="138.802" width="34.207" height="27.189"/>
	<rect x="298.282" y="138.802" width="34.207" height="27.189"/>
	<rect x="246.238" y="182.658" width="34.207" height="27.191"/>
	<rect x="298.282" y="182.658" width="34.207" height="27.191"/>
	<rect x="246.238" y="226.515" width="34.207" height="27.191"/>
	<rect x="298.282" y="226.515" width="34.207" height="27.191"/>
	<rect x="246.238" y="270.371" width="34.207" height="27.191"/>
	<rect x="298.282" y="270.371" width="34.207" height="27.191"/>
	<rect x="43.308" y="94.947" width="34.207" height="27.19"/>
	<rect x="95.351" y="94.947" width="34.207" height="27.19"/>
	<rect x="43.308" y="138.802" width="34.207" height="27.189"/>
	<rect x="95.351" y="138.802" width="34.207" height="27.189"/>
	<rect x="43.308" y="182.658" width="34.207" height="27.191"/>
	<rect x="95.351" y="182.658" width="34.207" height="27.191"/>
	<rect x="43.308" y="226.515" width="34.207" height="27.191"/>
	<rect x="95.351" y="226.515" width="34.207" height="27.191"/>
	<rect x="43.308" y="270.371" width="34.207" height="27.191"/>
	<rect x="95.351" y="270.371" width="34.207" height="27.191"/>
</g>
<g>
</g>
<g>
</g>
<g>
</g>
<g>
</g>
<g>
</g>
<g>
</g>
<g>
</g>
<g>
</g>
<g>
</g>
<g>
</g>
<g>
</g>
<g>
</g>
<g>
</g>
<g>
</g>
<g>
</g>
</svg>
