
<svg xmlns="http://www.w3.org/2000/svg" xmlns:xlink="http://www.w3.org/1999/xlink" width="25px" height="25px" viewBox="0 0 25 25">
<g id="surface1">
<path style=" stroke:none;fill-rule:nonzero;fill:rgb(255,255,255);fill-opacity:1;" d="M 24.625 13.359375 L 19.152344 18.4375 C 18.808594 18.753906 18.3125 18.839844 17.882812 18.652344 C 17.457031 18.464844 17.179688 18.042969 17.179688 17.621094 L 17.183594 14.0625 L 1.5625 14.0625 C 0.699219 14.0625 0 13.363281 0 12.457031 C 0 11.546875 0.699219 10.9375 1.5625 10.9375 L 17.183594 10.9375 L 17.183594 7.421875 C 17.183594 6.957031 17.460938 6.535156 17.886719 6.347656 C 18.3125 6.160156 18.8125 6.246094 19.152344 6.5625 L 24.625 11.640625 C 25.125 12.105469 25.125 12.894531 24.625 13.359375 Z M 24.625 13.359375 "/>
</g>
</svg>
